<?xml version="1.0" encoding="UTF-8" standalone="no"?>
<svg
   xmlns:dc="http://purl.org/dc/elements/1.1/"
   xmlns:cc="http://creativecommons.org/ns#"
   xmlns:rdf="http://www.w3.org/1999/02/22-rdf-syntax-ns#"
   xmlns:svg="http://www.w3.org/2000/svg"
   xmlns="http://www.w3.org/2000/svg"
   xmlns:sodipodi="http://sodipodi.sourceforge.net/DTD/sodipodi-0.dtd"
   xmlns:inkscape="http://www.inkscape.org/namespaces/inkscape"
   version="1.1"
   id="Layer_1"
   x="0px"
   y="0px"
   width="500"
   height="670"
   viewBox="0 0 500 670"
   enable-background="new 0 0 853 908"
   xml:space="preserve"
   inkscape:version="0.91 r13725"
   sodipodi:docname="iphone.svg"><metadata
     id="metadata3734"><rdf:RDF><cc:Work
         rdf:about=""><dc:format>image/svg+xml</dc:format><dc:type
           rdf:resource="http://purl.org/dc/dcmitype/StillImage" /><dc:title /></cc:Work></rdf:RDF></metadata><defs
     id="defs3732" /><sodipodi:namedview
     pagecolor="#ffffff"
     bordercolor="#666666"
     borderopacity="1"
     objecttolerance="10"
     gridtolerance="10"
     guidetolerance="10"
     inkscape:pageopacity="0"
     inkscape:pageshadow="2"
     inkscape:window-width="1170"
     inkscape:window-height="714"
     id="namedview3730"
     showgrid="false"
     inkscape:zoom="0.60462555"
     inkscape:cx="426.5"
     inkscape:cy="520.15665"
     inkscape:window-x="0"
     inkscape:window-y="0"
     inkscape:window-maximized="0"
     inkscape:current-layer="Layer_1" /><g
     id="g3710"
     transform="translate(-176.112,-115.791)"><path
       d="m 590.256,293.845 0,451.21 c 0,22.498 -18.238,40.736 -40.736,40.736 l -245.229,0 c -22.496,0 -40.734,-18.238 -40.734,-40.736 l 0,-396.217 -1.633,-0.53 0,-41.224 1.633,-0.531 0,-10.671 -1.633,-0.53 0,-41.225 1.633,-0.53 0,-24.681 c -1.441,-0.688 -2.445,-2.146 -2.445,-3.85 l 0,-18.331 c 0,-1.703 1.004,-3.162 2.445,-3.85 l 0,-39.941 c 0,-22.497 18.238,-40.735 40.734,-40.735 l 245.229,0 c 22.498,0 40.736,18.238 40.736,40.735 l 0,88.616 1.633,0.53 0,41.224 -1.633,0.531 z"
       id="path3712"
       inkscape:connector-curvature="0"
       style="clip-rule:evenodd;fill:#bfc4d1;fill-rule:evenodd" /><path
       d="m 304.699,126.69 244.412,0 c 20.248,0 36.662,16.414 36.662,36.661 l 0,581.296 c 0,20.248 -16.414,36.662 -36.662,36.662 l -244.412,0 c -20.248,0 -36.662,-16.414 -36.662,-36.662 l 0,-581.295 c 0,-20.248 16.414,-36.662 36.662,-36.662 z"
       id="path3714"
       inkscape:connector-curvature="0"
       style="clip-rule:evenodd;fill:#f4f4f8;fill-rule:evenodd" /><path
       d="m 427.109,767.164 c -11.648,0 -21.092,-9.442 -21.092,-21.091 0,-11.647 9.443,-21.091 21.092,-21.091 11.649,0 21.092,9.443 21.092,21.091 0,11.649 -9.443,21.091 -21.092,21.091 z m 0,-39.859 c -10.365,0 -18.77,8.403 -18.77,18.769 0,10.366 8.404,18.769 18.77,18.769 10.366,0 18.77,-8.402 18.77,-18.769 0,-10.366 -8.404,-18.769 -18.77,-18.769 z"
       id="path3716"
       inkscape:connector-curvature="0"
       style="clip-rule:evenodd;fill:#bec2ce;fill-rule:evenodd" /><path
       d="m 408.371,159.686 37.477,0 c 1.238,0 2.24,1.004 2.24,2.241 0,1.237 -1.002,2.24 -2.24,2.24 l -37.477,0 c -1.238,0 -2.24,-1.003 -2.24,-2.24 0,-1.237 1.002,-2.241 2.24,-2.241 z"
       id="path3718"
       inkscape:connector-curvature="0"
       style="clip-rule:evenodd;fill:#a1a5b3;fill-rule:evenodd" /><path
       d="m 383.115,157.648 c 2.361,0 4.277,1.916 4.277,4.278 0,2.362 -1.916,4.276 -4.277,4.276 -2.363,0 -4.277,-1.914 -4.277,-4.276 0,-2.362 1.914,-4.278 4.277,-4.278 z"
       id="path3720"
       inkscape:connector-curvature="0"
       style="clip-rule:evenodd;fill:#a1a5b3;fill-rule:evenodd" /><path
       d="m 427.109,138.975 c 1.652,0 2.992,1.339 2.992,2.991 0,1.652 -1.34,2.991 -2.992,2.991 -1.652,0 -2.992,-1.339 -2.992,-2.991 0,-1.652 1.34,-2.991 2.992,-2.991 z"
       id="path3722"
       inkscape:connector-curvature="0"
       style="clip-rule:evenodd;fill:#a1a5b3;fill-rule:evenodd" /><g
       id="g3724"><rect
         x="281.92401"
         y="199.032"
         width="289.965"
         height="509.93701"
         id="rect3726"
         style="fill:#ffffff" /><path
         d="m 571.389,199.532 0,508.937 -288.965,0 0,-508.937 288.965,0 m 1,-1 -290.965,0 0,510.937 290.965,0 0,-510.937 0,0 z"
         id="path3728"
         inkscape:connector-curvature="0"
         style="fill:#bec2ce" /></g></g></svg>