<svg xmlns="http://www.w3.org/2000/svg" xmlns:xlink="http://www.w3.org/1999/xlink" preserveAspectRatio="xMidYMid" width="838" height="200" viewBox="0 0 838 200">
  <defs>
    <style>

      .cls-2 {
        fill: #ffffff;
      }
    </style>
  </defs>
  <path d="m 483.2,154.1 c -35.3,0 -42.8,-27.4 -42.8,-50.4 l 0,-59.399988 21,0 0,60.199988 c 0,19.4 9.7,31 25.9,31 18.8,0 29.7,-15.2 30.7,-21 l 0,-0.2 0,-69.999988 20.5,0 0,106.899988 -13.2,0 -3.3,-15.2 -3.7,3.3 c -0.2,0.2 -0.5,0.5 -0.9,0.8 -3.4,3.5 -14.4,14 -34.2,14 z m -206.9,-2.8 0,-60.19999 c 0,-19.499998 -9.6,-30.699998 -26.2,-30.699998 -16.4,0 -26.7,10.3 -30,13.7 -0.4,0.4 -0.6,0.6 -0.8,0.8 l -1.3,1.1 0.4,1.7 c 0.5,2.2 0.8,7.1 0.8,12.899998 l 0,60.79999 -19.9,0 0,-60.29999 c 0,-19.799998 -9.5,-30.699998 -26.8,-30.699998 -17.8,0 -28.6,13.7 -30.5,18.7 l -0.2,0.5 0,71.699988 -20.8,0 0,-101.399988 12.5,-7.1 2.9,18.5 4.8,-4.8 c 9.6,-9.7 22.1,-14.9 35.1,-14.9 14.9,0 26,5.5 34,16.8 l 2,2.8 2.4,-2.4 c 1.8,-1.8 17.8,-17.2 38.8,-17.2 36,0 43.6,27.5 43.6,50.599998 l 0,59.09999 -20.8,0 z m 284,0 0,-101.399988 12.5,-7.1 2.9,18.5 4.8,-4.8 c 9.6,-9.7 22.1,-14.9 35.1,-14.9 5.8,0 11.1,0.9 15.8,2.6 l -8.1,18.3 c -3.4,-1.4 -7.3,-2.1 -11.7,-2.1 -17.8,0 -28.6,13.7 -30.5,18.7 l -0.2,0.5 0,71.699988 -20.6,0 z M 53.7,154.1 C 22.6,154.1 0,130.4 0,97.8 0,65.700012 23,41.500012 53.4,41.500012 c 27.9,0 48.9,21.2 48.9,49.199998 0,4.09999 -1,7.59999 -1.6,9.49999 l -54.4,0 35.6,-15.099988 c -1,-15.3 -13.9,-27.7 -28.7,-27.7 -8.1,0 -16.4,4 -22.6,10.9 -8.1,9 -11.8,21.799998 -10.3,35.899988 2,19 16.1,31.8 35.1,31.8 14,0 25,-6.9 29.7,-10.4 l 10.1,13.2 c -5,4.4 -20,15.3 -41.5,15.3 z m 728.5,0 c -31.1,0 -53.7,-23.7 -53.7,-56.3 0,-32.099988 23,-56.299988 53.4,-56.299988 27.9,0 48.9,21.2 48.9,49.199998 C 830.8,96.2 829.2,101.4 828.7,103.1 l -80.1,0.2 c 0.9,15.8 14.6,32.8 35.2,32.8 13,0 24.8,-7.1 29.6,-10.5 l 10.2,13.3 c -4.6,4.3 -19.2,15.2 -41.4,15.2 z m -0.6,-96.599988 c -16.4,0 -30.4,12.5 -32.3,28.5 l 61.6,0.2 c -0.9,-15.3 -14.4,-28.7 -29.3,-28.7 z M 677.1,154.1 c -19,0 -32.4,-8.8 -36.9,-12.3 l 7.3,-13.6 c 5,3.1 16.5,9.1 29.8,9.1 10.3,0 16.6,-4.8 16.6,-12.4 0,-9.8 -8.4,-14.1 -23.3,-20.9 -21.1,-9.2 -30.4,-19.699988 -30.4,-34.299988 0,-13.5 11.2,-28.1 35.7,-28.1 16.4,0 29.5,7.2 34.3,10.2 l -7.5,14.2 c -4.7,-2.5 -15.1,-7.3 -26.8,-7.3 -14.4,0 -15.5,8.6 -15.5,11.3 0,9.2 8.3,12.8 19.7,17.800002 C 701,97 715.8,104.9 715.8,124 c 0.1,17.1 -16.6,30.1 -38.7,30.1 z m -304.4,0 c -20.7,0 -33.5,-14.6 -33.6,-14.8 l -3.9,-4.5 -3.1,16.5 -13.4,0 0,-138.399988 21.3,-9.9 0,45.8 3.8,-1.3 c 0.4,-0.1 1.1,-0.4 2,-0.8 4.1,-1.7 12.7,-5.3 24.2,-5.3 29.5,0 52.6,24.7 52.6,56.299988 -0.1,31.7 -21.9,56.4 -49.9,56.4 z m -5.6,-93.799988 c -15.3,0 -25.6,6.7 -26.1,6.9 l -1.3,0.8 0,48.299988 0.3,0.6 c 0.3,0.8 8.7,18.6 29.3,18.6 18.6,0 32.7,-16.2 32.7,-37.8 0.1,-21.299988 -15,-37.399988 -34.9,-37.399988 z" id="path-1" class="cls-2" fill-rule="evenodd"/>
</svg>
