<?xml version="1.0" encoding="UTF-8" standalone="no"?>
<svg
   xmlns:dc="http://purl.org/dc/elements/1.1/"
   xmlns:cc="http://creativecommons.org/ns#"
   xmlns:rdf="http://www.w3.org/1999/02/22-rdf-syntax-ns#"
   xmlns:svg="http://www.w3.org/2000/svg"
   xmlns="http://www.w3.org/2000/svg"
   xmlns:xlink="http://www.w3.org/1999/xlink"
   xmlns:sodipodi="http://sodipodi.sourceforge.net/DTD/sodipodi-0.dtd"
   xmlns:inkscape="http://www.inkscape.org/namespaces/inkscape"
   version="1.1"
   x="0px"
   y="0px"
   width="500"
   height="240"
   viewBox="0 0 500 240"
   enable-background="new 0 0 1213 942"
   xml:space="preserve"
   id="svg3573"
   inkscape:version="0.91 r13725"
   sodipodi:docname="macbook.svg"><metadata
     id="metadata3624"><rdf:RDF><cc:Work
         rdf:about=""><dc:format>image/svg+xml</dc:format><dc:type
           rdf:resource="http://purl.org/dc/dcmitype/StillImage" /><dc:title></dc:title></cc:Work></rdf:RDF></metadata><defs
     id="defs3622" /><sodipodi:namedview
     pagecolor="#ffffff"
     bordercolor="#666666"
     borderopacity="1"
     objecttolerance="10"
     gridtolerance="10"
     guidetolerance="10"
     inkscape:pageopacity="0"
     inkscape:pageshadow="2"
     inkscape:window-width="1281"
     inkscape:window-height="749"
     id="namedview3620"
     showgrid="false"
     inkscape:zoom="0.58280255"
     inkscape:cx="606.5"
     inkscape:cy="471"
     inkscape:window-x="0"
     inkscape:window-y="0"
     inkscape:window-maximized="0"
     inkscape:current-layer="svg3573" /><g
     id="Layer_2"
     display="none"
     style="display:none"
     transform="translate(0,-702)"><rect
       display="inline"
       width="2872"
       height="1940"
       id="rect3576"
       x="0"
       y="0"
       style="display:inline;fill:#7c8896" /></g><g
     id="Layer_1"
     transform="matrix(0.55080829,0,0,0.55080829,-82.94419,-140.15112)"><g
       id="Macbook"><g
         id="Screen"><path
           d="m 902.729,280.413 c 0,-10.755 -8.75,-19.505 -19.506,-19.505 l -553.063,0 c -10.756,0 -19.506,8.75 -19.506,19.505 l 0,368.812 c 0,10.758 8.75,19.506 19.506,19.506 l 553.063,0 c 10.756,0 19.506,-8.748 19.506,-19.506 l 0,-368.812 z"
           id="path3581"
           inkscape:connector-curvature="0"
           style="fill:#222329" /><path
           d="m 606.692,272.261 c 1.911,0 3.46,1.552 3.46,3.467 0,1.914 -1.549,3.467 -3.46,3.467 -1.911,0 -3.461,-1.553 -3.461,-3.467 0,-1.915 1.55,-3.467 3.461,-3.467 z"
           id="path3583"
           inkscape:connector-curvature="0"
           style="fill:#393b44" /><g
           id="g3585"><path
             d="m 329.334,633.615 c -1.104,0 -2,-0.896 -2,-2 l 0,-346.275 c 0,-1.104 0.896,-2 2,-2 l 554.285,0 c 1.104,0 2,0.896 2,2 l 0,346.275 c 0,1.104 -0.896,2 -2,2 l -554.285,0 z"
             id="path3587"
             inkscape:connector-curvature="0"
             style="fill:#ffffff" /><path
             d="m 883.619,285.34 0,346.275 -554.285,0 0,-346.275 554.285,0 m 0,-4 -554.285,0 c -2.209,0 -4,1.791 -4,4 l 0,346.275 c 0,2.209 1.791,4 4,4 l 554.285,0 c 2.209,0 4,-1.791 4,-4 l 0,-346.275 c 0,-2.209 -1.791,-4 -4,-4 l 0,0 z"
             id="path3589"
             inkscape:connector-curvature="0" /></g></g><g
         id="Base"><path
           d="m 273.948,681.092 304.587,0 55.931,0 304.586,0 c 14.077,0 26.472,-5.051 31.432,-8.463 l -727.968,0 c 4.961,3.412 17.355,8.463 31.432,8.463 z"
           id="path3592"
           inkscape:connector-curvature="0"
           style="fill:#afb4ba" /><g
           id="g3594"><g
             id="g3596"><path
               d="m 719.96,678.791 c -2.051,-0.055 -4.142,0.232 -4.491,0.773 -0.145,0.229 1.622,0.807 3.675,0.861 2.053,0.057 3.416,-0.404 3.759,-0.66 0.515,-0.384 -0.89,-0.919 -2.943,-0.974 z m -228.184,0 c -2.053,0.055 -3.458,0.59 -2.941,0.975 0.344,0.256 1.706,0.717 3.758,0.66 2.052,-0.055 3.821,-0.633 3.674,-0.861 -0.347,-0.542 -2.438,-0.829 -4.491,-0.774 z"
               id="path3598"
               inkscape:connector-curvature="0"
               style="fill:#878d96" /></g></g><g
           id="g3600"><defs
             id="defs3602"><path
               id="SVGID_1_"
               d="m 971.244,659.129 -729.499,0 c -0.198,0 -0.383,0.164 -0.383,0.373 l 0,11.375 c 0,0.42 0.048,0.938 0.537,1.293 0.191,0.145 0.397,0.293 0.616,0.443 l 727.968,0 c 0.288,-0.197 0.549,-0.389 0.786,-0.574 0.339,-0.262 0.368,-0.67 0.368,-1.004 l 0,-11.521 c 0.001,-0.209 -0.211,-0.385 -0.393,-0.385 z"
               inkscape:connector-curvature="0" /></defs><clipPath
             id="SVGID_2_"><use
               xlink:href="#SVGID_1_"
               overflow="visible"
               id="use3606"
               style="overflow:visible"
               x="0"
               y="0"
               width="100%"
               height="100%" /></clipPath><g
             clip-path="url(#SVGID_2_)"
             id="g3608"><rect
               x="235.395"
               y="653.55499"
               width="40.036999"
               height="24.635"
               id="rect3610"
               style="fill:#c1c5ca" /><rect
               x="927.56702"
               y="653.55499"
               width="52.655998"
               height="24.635"
               id="rect3612"
               style="fill:#ecedee" /><rect
               x="275.43201"
               y="653.55499"
               width="652.13599"
               height="24.635"
               id="rect3614"
               style="fill:#d0d3d6" /></g></g><path
           d="m 555.871,659.139 c 0,2.502 2.662,8.082 8.052,8.082 4.796,0 39.44,0 45.748,0 l 0,-8.082 -53.8,0 z"
           id="path3616"
           inkscape:connector-curvature="0"
           style="fill:#afb4ba" /><path
           d="m 663.471,659.139 c 0,2.502 -2.662,8.082 -8.051,8.082 -4.796,0 -39.441,0 -45.749,0 l 0,-8.082 53.8,0 z"
           id="path3618"
           inkscape:connector-curvature="0"
           style="fill:#c1c5ca" /></g></g></g></svg>